# Blender v2.79 (sub 0) OBJ File: ''
# www.blender.org
mtllib Caliver Bottom Rail.mtl
o Body.plasma_incinerator.smd.mesh_3
v -2.677360 2.412750 20.190042
v -2.677360 2.412750 19.037395
v -2.354144 1.796317 18.724056
v -2.354144 1.796315 24.587872
v -2.354144 1.796316 23.121950
v -1.759720 1.308682 23.121950
v -2.354144 1.796316 21.655964
v -1.759720 1.308682 21.655964
v -1.759720 1.308682 20.190042
v -1.088448 0.971301 21.655964
v -1.088448 0.971301 20.190042
v -1.088448 0.971302 19.037395
v -1.759720 1.308683 18.731363
v -2.354144 1.796316 20.190042
v -2.677360 2.412749 21.655964
v -2.677360 2.412749 23.121950
v -2.677360 2.412748 24.587872
v -2.677360 2.412748 26.183470
v -1.759720 1.308681 24.587872
v -2.354144 1.796315 26.496811
v -1.759720 1.308681 26.489502
v -1.088448 0.971300 24.587872
v -1.088448 0.971301 23.121950
v -1.088448 0.971300 26.183470
v 1.754936 1.308682 20.190042
v 1.083665 0.971302 19.037395
v 1.754936 1.308683 18.731363
v 2.349361 1.796317 18.724056
v 2.349361 1.796316 20.190042
v 2.672576 2.412750 20.190042
v 2.349361 1.796316 21.655964
v 2.672576 2.412749 21.655964
v 2.672576 2.412749 23.121950
v 2.672576 2.412750 19.037395
v 1.754936 1.308682 23.121950
v 1.083665 0.971301 21.655964
v 1.754936 1.308682 21.655964
v 1.083665 0.971301 23.121950
v 1.083665 0.971300 24.587872
v 1.754936 1.308681 24.587872
v 1.754936 1.308681 26.489502
v 2.349361 1.796315 24.587872
v 2.349361 1.796315 26.496811
v 2.672576 2.412748 26.183470
v 2.672576 2.412748 24.587872
v 2.349361 1.796316 23.121950
v 1.083665 0.971301 20.190042
v 1.083665 0.971300 26.183470
vt 0.052239 -0.936042
vt 0.032137 -0.936042
vt 0.026672 -0.913675
vt 0.128938 -0.913675
vt 0.103372 -0.913675
vt 0.103372 -0.895981
vt 0.077805 -0.913675
vt 0.077805 -0.895981
vt 0.052239 -0.895981
vt 0.077805 -0.883739
vt 0.052239 -0.883739
vt 0.032137 -0.883739
vt 0.026800 -0.895981
vt 0.052239 -0.913675
vt 0.077805 -0.936042
vt 0.103372 -0.936042
vt 0.128938 -0.936042
vt 0.156766 -0.936042
vt 0.128938 -0.895981
vt 0.162230 -0.913675
vt 0.162103 -0.895981
vt 0.128938 -0.883739
vt 0.103372 -0.883739
vt 0.156766 -0.883739
vt 0.052239 -0.895981
vt 0.032137 -0.883739
vt 0.026800 -0.895981
vt 0.026672 -0.913675
vt 0.052239 -0.913675
vt 0.052239 -0.936042
vt 0.077805 -0.913675
vt 0.077805 -0.936042
vt 0.103372 -0.936042
vt 0.032137 -0.936042
vt 0.103372 -0.895981
vt 0.077805 -0.883739
vt 0.077805 -0.895981
vt 0.103372 -0.883739
vt 0.128938 -0.883739
vt 0.128938 -0.895981
vt 0.162103 -0.895981
vt 0.128938 -0.913675
vt 0.162230 -0.913675
vt 0.156766 -0.936042
vt 0.128938 -0.936042
vt 0.103372 -0.913675
vt 0.052239 -0.883739
vt 0.156766 -0.883739
vn -0.8856 -0.4644 -0.0000
vn -0.7755 -0.6314 0.0000
vn -0.5450 -0.8384 -0.0000
vn -0.4491 -0.8935 -0.0000
vn 0.5450 -0.8384 -0.0000
vn 0.4491 -0.8935 -0.0000
vn 0.7755 -0.6314 0.0000
vn 0.8856 -0.4644 -0.0000
usemtl None
s 1
f 1/1/1 2/2/1 3/3/2
f 4/4/2 5/5/2 6/6/3
f 5/5/2 7/7/2 6/6/3
f 6/6/3 7/7/2 8/8/3
f 8/8/3 7/7/2 9/9/3
f 8/8/3 9/9/3 10/10/4
f 10/10/4 9/9/3 11/11/4
f 11/11/4 9/9/3 12/12/4
f 9/9/3 13/13/3 12/12/4
f 9/9/3 3/3/2 13/13/3
f 14/14/2 3/3/2 9/9/3
f 14/14/2 1/1/1 3/3/2
f 7/7/2 1/1/1 14/14/2
f 15/15/1 1/1/1 7/7/2
f 16/16/1 15/15/1 7/7/2
f 5/5/2 16/16/1 7/7/2
f 4/4/2 16/16/1 5/5/2
f 17/17/1 16/16/1 4/4/2
f 18/18/1 17/17/1 4/4/2
f 7/7/2 14/14/2 9/9/3
f 19/19/3 4/4/2 6/6/3
f 20/20/2 18/18/1 4/4/2
f 20/20/2 4/4/2 21/21/3
f 21/21/3 4/4/2 19/19/3
f 21/21/3 19/19/3 22/22/4
f 19/19/3 6/6/3 22/22/4
f 22/22/4 6/6/3 23/23/4
f 23/23/4 6/6/3 10/10/4
f 6/6/3 8/8/3 10/10/4
f 24/24/4 21/21/3 22/22/4
f 25/25/5 26/26/6 27/27/5
f 25/25/5 27/27/5 28/28/7
f 29/29/7 25/25/5 28/28/7
f 29/29/7 28/28/7 30/30/8
f 31/31/7 29/29/7 30/30/8
f 32/32/8 31/31/7 30/30/8
f 33/33/8 31/31/7 32/32/8
f 31/31/7 25/25/5 29/29/7
f 30/30/8 28/28/7 34/34/8
f 35/35/5 36/36/6 37/37/5
f 38/38/6 36/36/6 35/35/5
f 39/39/6 38/38/6 35/35/5
f 40/40/5 39/39/6 35/35/5
f 41/41/5 39/39/6 40/40/5
f 41/41/5 40/40/5 42/42/7
f 43/43/7 41/41/5 42/42/7
f 43/43/7 42/42/7 44/44/8
f 44/44/8 42/42/7 45/45/8
f 45/45/8 42/42/7 33/33/8
f 42/42/7 46/46/7 33/33/8
f 46/46/7 31/31/7 33/33/8
f 46/46/7 35/35/5 31/31/7
f 35/35/5 37/37/5 31/31/7
f 37/37/5 25/25/5 31/31/7
f 37/37/5 36/36/6 25/25/5
f 36/36/6 47/47/6 25/25/5
f 47/47/6 26/26/6 25/25/5
f 42/42/7 35/35/5 46/46/7
f 40/40/5 35/35/5 42/42/7
f 48/48/6 39/39/6 41/41/5
