# Blender v2.79 (sub 0) OBJ File: ''
# www.blender.org
mtllib Caliver Top Rail.mtl
o Body.plasma_incinerator.smd.mesh_2
v 2.687477 8.069372 6.801822
v 2.482709 7.271215 23.067083
v 2.482709 7.271219 6.801822
v 2.687477 8.069368 23.067083
v 2.482709 8.867525 6.801823
v 2.482709 8.867521 23.067083
v 1.899582 9.544172 6.801823
v 1.899582 9.544168 23.067083
v 1.026870 9.996290 6.801823
v 1.026870 9.996286 23.067083
v -0.002563 10.155054 6.801823
v -0.002563 10.155050 23.067083
v -1.031997 9.996290 6.801823
v -1.031997 9.996286 23.067083
v -1.904709 9.544172 6.801823
v -1.904709 9.544168 23.067083
v -2.487835 8.867529 6.801823
v -2.487835 8.867525 23.067083
v -2.692603 8.069372 6.801822
v -2.692603 8.069368 23.067083
v -2.487836 7.271221 6.801822
v -2.487836 7.271217 23.067083
vt 0.945311 -0.107650
vt 0.658462 -0.119404
vt 0.945311 -0.119404
vt 0.658462 -0.107650
vt 0.945311 -0.095896
vt 0.658462 -0.095896
vt 0.945311 -0.084141
vt 0.658462 -0.084141
vt 0.945311 -0.072387
vt 0.658462 -0.072387
vt 0.945311 -0.060632
vt 0.658462 -0.060632
vt 0.945311 -0.048878
vt 0.658462 -0.048878
vt 0.945311 -0.037124
vt 0.658462 -0.037124
vt 0.945311 -0.025369
vt 0.658462 -0.025369
vt 0.945311 -0.013615
vt 0.658462 -0.013615
vt 0.945311 -0.001860
vt 0.658462 -0.001860
vn 0.9964 -0.0852 0.0000
vn 0.9686 -0.2485 -0.0000
vn 0.9964 0.0852 0.0000
vn 0.9198 0.3924 0.0000
vn 0.8477 0.5305 0.0000
vn 0.6691 0.7432 0.0000
vn 0.5683 0.8228 0.0000
vn 0.3617 0.9323 -0.0000
vn 0.2580 0.9662 0.0000
vn 0.0513 0.9987 0.0000
vn -0.0513 0.9987 0.0000
vn -0.2580 0.9662 -0.0000
vn -0.3617 0.9323 -0.0000
vn -0.5683 0.8228 0.0000
vn -0.6691 0.7432 0.0000
vn -0.8477 0.5305 -0.0000
vn -0.9198 0.3924 -0.0000
vn -0.9964 0.0852 -0.0000
vn -0.9964 -0.0852 0.0000
vn -0.9686 -0.2485 -0.0000
usemtl None
s 1
f 1/1/1 2/2/2 3/3/2
f 1/1/1 4/4/3 2/2/2
f 5/5/4 4/4/3 1/1/1
f 5/5/4 6/6/5 4/4/3
f 7/7/6 6/6/5 5/5/4
f 7/7/6 8/8/7 6/6/5
f 9/9/8 8/8/7 7/7/6
f 9/9/8 10/10/9 8/8/7
f 11/11/10 10/10/9 9/9/8
f 11/11/10 12/12/11 10/10/9
f 13/13/12 12/12/11 11/11/10
f 13/13/12 14/14/13 12/12/11
f 15/15/14 14/14/13 13/13/12
f 15/15/14 16/16/15 14/14/13
f 17/17/16 16/16/15 15/15/14
f 17/17/16 18/18/17 16/16/15
f 19/19/18 18/18/17 17/17/16
f 19/19/18 20/20/19 18/18/17
f 21/21/20 20/20/19 19/19/18
f 21/21/20 22/22/20 20/20/19
